<?xml version="1.0" encoding="utf-8"?>
<!-- Generator: Adobe Illustrator 16.0.0, SVG Export Plug-In . SVG Version: 6.00 Build 0)  -->
<!DOCTYPE svg PUBLIC "-//W3C//DTD SVG 1.1//EN" "http://www.w3.org/Graphics/SVG/1.1/DTD/svg11.dtd">
<svg version="1.1" id="Layer_6" xmlns="http://www.w3.org/2000/svg" xmlns:xlink="http://www.w3.org/1999/xlink" x="0px" y="0px"
	 width="48.189px" height="48.189px" viewBox="0 0 48.189 48.189" enable-background="new 0 0 48.189 48.189" xml:space="preserve">
<g>
	<path fill="none" d="M8.045,32.587c-1.025,0-1.88,0.729-1.88,2.021c0,1.29,0.831,2.07,1.856,2.07c1.024,0,1.855-0.778,1.855-2.07
		C9.878,33.317,9.07,32.587,8.045,32.587z"/>
	<path fill="none" d="M24.456,17.708c1.96,0,3.55-1.617,3.55-3.61c0-1.995-1.59-3.612-3.55-3.612c-1.959,0-3.549,1.617-3.549,3.612
		C20.907,16.091,22.497,17.708,24.456,17.708z M24.475,10.844c1.752,0,3.18,1.452,3.18,3.235s-1.428,3.235-3.18,3.235
		c-1.755,0-3.182-1.452-3.182-3.235S22.72,10.844,24.475,10.844z"/>
	<path fill="none" d="M23.323,14.671c-0.198,0-0.326,0.124-0.326,0.336c0,0.424,0.442,0.965,1.331,0.987v0.33
		c0,0.091,0.068,0.182,0.158,0.182c0.089,0,0.158-0.091,0.158-0.182v-0.33c0.781-0.05,1.308-0.413,1.308-1.13
		c0-0.823-0.614-1.032-1.308-1.184v-1.017c0.582,0.011,0.577,0.583,0.918,0.583c0.18,0,0.332-0.123,0.332-0.332
		c0-0.523-0.841-0.786-1.25-0.796v-0.286c0-0.091-0.069-0.183-0.158-0.183c-0.09,0-0.158,0.092-0.158,0.183v0.286
		c-0.657,0.021-1.251,0.396-1.251,1.122c0,0.594,0.472,0.942,1.251,1.086v1.118C23.454,15.41,23.912,14.671,23.323,14.671z
		 M24.644,14.388c0.283,0.063,0.646,0.172,0.646,0.533c0,0.354-0.332,0.505-0.646,0.524V14.388z M23.738,13.121
		c0-0.229,0.231-0.444,0.589-0.455v0.958C23.934,13.542,23.738,13.386,23.738,13.121z"/>
	<path fill="none" d="M37.307,24.099c3.338,0,6.044-2.753,6.044-6.149c0-3.396-2.706-6.147-6.044-6.147s-6.044,2.753-6.044,6.147
		C31.263,21.346,33.969,24.099,37.307,24.099z M37.337,12.412c2.986,0,5.415,2.472,5.415,5.509s-2.429,5.51-5.415,5.51
		c-2.984,0-5.415-2.473-5.415-5.51C31.922,14.885,34.352,12.412,37.337,12.412z"/>
	<path fill="none" d="M35.377,18.929c-0.339,0-0.555,0.209-0.555,0.572c0,0.72,0.752,1.64,2.266,1.678v0.563
		c0,0.154,0.115,0.311,0.268,0.311c0.151,0,0.27-0.155,0.27-0.311v-0.563c1.334-0.082,2.229-0.702,2.229-1.923
		c0-1.402-1.046-1.757-2.229-2.014v-1.729c0.991,0.019,0.983,0.992,1.565,0.992c0.305,0,0.564-0.21,0.564-0.563
		c0-0.895-1.433-1.339-2.131-1.357V14.1c0-0.155-0.117-0.312-0.27-0.312c-0.151,0-0.268,0.155-0.268,0.312v0.484
		c-1.119,0.035-2.131,0.674-2.131,1.913c0,1.01,0.804,1.604,2.131,1.849v1.903C35.6,20.186,36.379,18.929,35.377,18.929z
		 M37.625,18.445c0.482,0.111,1.104,0.292,1.104,0.911c0,0.601-0.565,0.856-1.104,0.894V18.445z M36.083,16.289
		c0-0.393,0.396-0.757,1.005-0.774v1.632C36.417,17.006,36.083,16.744,36.083,16.289z"/>
	<path fill="#E57833" d="M43.043,28.124c-2.45,1.377-5.771,2.892-9.131,3.427c-2.989,0.479-10.784-1.904-9.617-2.566
		c0.479-0.271,4.979,1.805,8.872,0.751c2.287-0.621,1.963-2.799,0.718-3.085c-1.235-0.286-9.565-3.677-12.662-3.771
		c-3.42,0.025-3.979,1.204-5.72,1.493c-0.597,0.1-0.971,0.087-1.009,0.669c-0.168,2.626-0.45,7.031-0.637,9.927
		c0.047,0.035,0.212,1.011,0.728,0.563c0.729-0.632,1.701-0.407,2.646-0.188c1.479,0.342,14.294,2.729,16.062,2.313
		c2.529-0.597,9.688-4.914,11.061-6.256C46.479,29.319,44.825,27.123,43.043,28.124z"/>
	<path fill="#010101" d="M13.841,35.226c0.006-0.081,0.013-0.177,0.018-0.26C13.844,34.958,13.84,35.021,13.841,35.226z"/>
	<path fill="#E57833" d="M11.973,22.97l-6.712-0.415c-0.52-0.032-1.049,0.459-1.178,1.092l-1.221,13.95
		c-0.128,0.632,0.191,1.172,0.709,1.195l7.44-0.001c0.519,0.025,0.975-0.486,1.015-1.139l0.815-13.44
		C12.883,23.562,12.491,23.002,11.973,22.97z M8.021,36.678c-1.026,0-1.856-0.78-1.856-2.07c0-1.291,0.854-2.021,1.88-2.021
		s1.833,0.729,1.833,2.021S9.046,36.678,8.021,36.678z"/>
	<path fill="#E57833" d="M37.307,25.955c4.345,0,7.866-3.584,7.866-8.005c0-4.419-3.521-8.004-7.866-8.004
		c-4.346,0-7.867,3.585-7.867,8.004C29.44,22.371,32.962,25.955,37.307,25.955z M37.307,11.802c3.338,0,6.044,2.753,6.044,6.147
		c0,3.396-2.706,6.149-6.044,6.149s-6.044-2.753-6.044-6.149C31.263,14.554,33.969,11.802,37.307,11.802z"/>
	<path fill="#E57833" d="M38.727,19.356c0-0.619-0.62-0.8-1.104-0.911v1.805C38.162,20.213,38.727,19.957,38.727,19.356z"/>
	<path fill="#E57833" d="M37.088,15.513c-0.609,0.019-1.005,0.383-1.005,0.774c0,0.455,0.334,0.718,1.005,0.856V15.513z"/>
	<path fill="#E57833" d="M37.337,23.429c2.986,0,5.415-2.473,5.415-5.51s-2.429-5.509-5.415-5.509c-2.984,0-5.415,2.472-5.415,5.509
		S34.352,23.429,37.337,23.429z M34.958,16.498c0-1.239,1.013-1.878,2.131-1.913V14.1c0-0.155,0.115-0.312,0.268-0.312
		c0.151,0,0.27,0.155,0.27,0.312v0.484c0.698,0.02,2.131,0.464,2.131,1.357c0,0.354-0.261,0.563-0.564,0.563
		c-0.582,0-0.574-0.975-1.565-0.992v1.729c1.184,0.257,2.229,0.61,2.229,2.014c0,1.221-0.896,1.841-2.229,1.923v0.563
		c0,0.154-0.117,0.311-0.27,0.311c-0.151,0-0.268-0.155-0.268-0.311v-0.563c-1.514-0.038-2.266-0.958-2.266-1.678
		c0-0.363,0.216-0.572,0.555-0.572c1.002,0,0.224,1.257,1.711,1.319v-1.903C35.761,18.1,34.958,17.507,34.958,16.498z"/>
	<path fill="#E57833" d="M24.456,18.798c2.552,0,4.621-2.104,4.621-4.7c0-2.598-2.068-4.701-4.621-4.701
		c-2.551,0-4.62,2.104-4.62,4.701C19.836,16.693,21.905,18.798,24.456,18.798z M24.456,10.485c1.96,0,3.55,1.617,3.55,3.612
		c0,1.993-1.59,3.61-3.55,3.61c-1.959,0-3.549-1.617-3.549-3.61C20.907,12.102,22.497,10.485,24.456,10.485z"/>
	<path fill="#E57833" d="M25.29,14.922c0-0.361-0.362-0.471-0.646-0.533v1.059C24.958,15.427,25.29,15.275,25.29,14.922z"/>
	<path fill="#E57833" d="M24.328,12.666c-0.357,0.011-0.589,0.226-0.589,0.455c0,0.267,0.195,0.422,0.589,0.503V12.666z"/>
	<path fill="#E57833" d="M24.475,17.315c1.752,0,3.18-1.452,3.18-3.235s-1.428-3.235-3.18-3.235c-1.755,0-3.182,1.452-3.182,3.235
		S22.72,17.315,24.475,17.315z M23.076,13.243c0-0.728,0.594-1.103,1.251-1.122v-0.286c0-0.091,0.068-0.183,0.158-0.183
		c0.089,0,0.158,0.092,0.158,0.183v0.286c0.409,0.01,1.25,0.271,1.25,0.796c0,0.209-0.152,0.332-0.332,0.332
		c-0.342,0-0.337-0.571-0.918-0.583v1.017c0.693,0.15,1.308,0.359,1.308,1.184c0,0.717-0.526,1.08-1.308,1.13v0.33
		c0,0.091-0.069,0.182-0.158,0.182c-0.09,0-0.158-0.091-0.158-0.182v-0.33c-0.888-0.022-1.331-0.563-1.331-0.987
		c0-0.212,0.128-0.336,0.326-0.336c0.589,0,0.131,0.738,1.005,0.775V14.33C23.548,14.185,23.076,13.836,23.076,13.243z"/>
</g>
</svg>
